<?xml version="1.0" encoding="UTF-8" standalone="no"?>
<svg
   xmlns:dc="http://purl.org/dc/elements/1.1/"
   xmlns:cc="http://creativecommons.org/ns#"
   xmlns:rdf="http://www.w3.org/1999/02/22-rdf-syntax-ns#"
   xmlns:svg="http://www.w3.org/2000/svg"
   xmlns="http://www.w3.org/2000/svg"
   version="1.1"
   id="svg8504"
   viewBox="0 0 39 39.000001"
   height="39"
   width="39">
  <defs
     id="defs8506" />
  <metadata
     id="metadata8509">
    <rdf:RDF>
      <cc:Work
         rdf:about="">
        <dc:format>image/svg+xml</dc:format>
        <dc:type
           rdf:resource="http://purl.org/dc/dcmitype/StillImage" />
        <dc:title></dc:title>
      </cc:Work>
    </rdf:RDF>
  </metadata>
  <g
     transform="translate(0,-1013.3622)"
     id="layer1">
    <g
       id="text12996"
       style="font-style:normal;font-weight:normal;font-size:311.23342896px;line-height:125%;font-family:sans-serif;letter-spacing:0px;word-spacing:0px;fill:#000000;fill-opacity:1;stroke:none;stroke-width:1px;stroke-linecap:butt;stroke-linejoin:miter;stroke-opacity:1" />
    <g
       id="text13192"
       style="font-style:normal;font-weight:normal;font-size:1004.2557373px;line-height:125%;font-family:sans-serif;letter-spacing:0px;word-spacing:0px;fill:#f40000;fill-opacity:1;stroke:none;stroke-width:1px;stroke-linecap:butt;stroke-linejoin:miter;stroke-opacity:1" />
    <g
       transform="matrix(0.42187972,0,0,0.42187972,569.40327,-660.74965)"
       style="font-style:normal;font-weight:normal;font-size:645.17480469px;line-height:125%;font-family:sans-serif;letter-spacing:0px;word-spacing:0px;fill:#ff0000;fill-opacity:1;stroke:none;stroke-width:1px;stroke-linecap:butt;stroke-linejoin:miter;stroke-opacity:1"
       id="text13381" />
    <g
       id="g13861">
      <rect
         y="1013.3622"
         x="0"
         height="39"
         width="202"
         id="rect13770"
         style="opacity:1;fill:none;fill-opacity:1;fill-rule:nonzero;stroke:none;stroke-width:10;stroke-linejoin:round;stroke-miterlimit:4;stroke-dasharray:none;stroke-opacity:1" />
      <g
         id="g13832"
         transform="matrix(0.06718574,0,0,0.06718574,0.41105464,1013.64)">
        <g
           transform="translate(968.25381,212.16356)"
           id="g13900">
          <path
             style="opacity:1;fill:#ff5555;fill-opacity:1;fill-rule:nonzero;stroke:none;stroke-width:1;stroke-linejoin:round;stroke-miterlimit:4;stroke-dasharray:none;stroke-opacity:1"
             d="m -684.1307,-216.29836 c -160.29525,-7.2e-4 -290.24076,129.943778 -290.24129,290.239018 -7.1e-4,160.296152 129.94515,290.242022 290.24129,290.241302 160.29525,-5.3e-4 290.23975,-129.94605 290.23903,-290.241302 -0.012,-36.21165 -6.8002,-72.1012999 -20.01424,-105.8159 1.79093,15.21912 2.70329,31.09575012 2.70329,47.65808 0,38.62942 -7.58676,73.11943 -22.7626,103.471122 -14.48603,29.66186 -32.76734,54.84207 -54.8413,75.5364 -22.07395,20.00453 -45.52661,35.18031 -70.35982,45.52748 -24.83319,10.34716 -47.25294,15.52078 -67.25746,15.52078 -15.17584,0 -26.55599,-8.62421 -34.14391,-25.86947 -6.89812,-17.24529 -11.72667,-41.04299 -14.4859,-71.39468 -12.41661,9.65735 -26.21442,19.65952 -41.39026,30.00669 -14.48603,10.34717 -30.00688,19.65921 -46.56234,27.93695 -15.86566,8.27772 -32.41942,15.17664 -49.6647,20.69511 -16.55547,5.5185 -33.45652,8.27672 -50.70181,8.27672 -15.17584,0 -27.24835,-5.51869 -36.2159,-16.55566 -8.96755,-11.72679 -13.45104,-24.48717 -13.45104,-38.28338 0,-19.31471 7.58902,-36.2158 22.76486,-50.70182 15.17584,-15.17584 33.45489,-28.9714 54.83904,-41.387992 22.07395,-12.4166 45.18381,-24.14408 69.32719,-35.18104 24.14339,-11.7268 45.18064,-23.45426 63.11574,-35.18104 -6.89812,-24.1433899 -16.55522,-42.42244 -28.97182,-54.83904 -12.4166,-13.1064 -25.52203,-19.66025 -39.31826,-19.66025 -4.82868,0 -11.03747,1.38023 -18.62539,4.13948 -7.58792,2.06942 -15.17469,5.1727 -22.76261,9.31156 -7.58792,4.13887 -14.48682,8.96741 -20.69512,14.48591 -5.51849,4.82868 -9.31187,10.0022901 -11.38131,15.5207801 -5.51849,0 -10.00198,-1.03291 -13.45104,-3.10235 -2.75924,-2.75924 -4.8296,-5.5197101 -6.20921,-8.2789601 -1.37963,-3.44905 -2.41479,-6.55232 -3.10461,-9.31155 l 0,-5.17436 c 0,-2.06944 0.34506,-3.44966 1.03488,-4.13947 8.96754,-5.51849 20.00488,-11.72502 33.11129,-18.62314 13.79623,-7.58792 28.28189,-14.48682 43.45773,-20.69512 15.86565,-6.20829 31.73155,-11.38191 47.59722,-15.52078 16.55545,-4.828658 32.76641,-7.244074 48.63206,-7.244074 17.24529,0 30.35072,4.140696 39.31827,12.418424 8.96755,7.58792 15.86645,18.62301 20.69512,33.10904 4.82867,13.79622 8.27699,30.35224 10.34643,49.66695012 2.75925,18.62490988 6.20983,38.97429988 10.3487,61.04825988 9.65734,52.425642 18.27929,88.640932 25.86721,108.645452 8.27774,19.3147 18.97003,28.97182 32.07643,28.97182 12.4166,0 23.45395,-5.1736 33.11129,-15.52078 10.34716,-10.34717 18.9691,-23.45261 25.86722,-39.31826 6.89811,-15.86565 12.07173,-33.45684 15.52078,-52.771552 4.13887,-20.00452 6.20923,-38.97369 6.20922,-56.90877 0,-32.4211299 0.59821,-64.70797 -9.74897,-98.50872 -26.46667,-91.692628 -110.37922,-150.764888 -200.06338,-152.197868 z"
             id="path13485" />
          <path
             style="opacity:1;fill:#ff5555;fill-opacity:1;fill-rule:nonzero;stroke:none;stroke-width:1;stroke-linejoin:round;stroke-miterlimit:4;stroke-dasharray:none;stroke-opacity:1"
             d="m -695.74875,50.963878 c -18.62489,7.58792 -36.21608,15.17467 -52.77155,22.76259 -15.86566,6.89812 -30.00626,14.48714 -42.42286,22.76487 -12.41661,8.277742 -22.07373,17.244752 -28.97184,26.902092 -6.8981,8.96755 -10.34642,18.96972 -10.34642,30.0067 0,11.72678 2.75821,21.38389 8.27669,28.97181 6.2083,6.8981 14.14238,10.3487 23.79974,10.3487 14.48603,0 27.93652,-2.07036 40.35312,-6.20923 12.4166,-4.82867 23.45394,-10.34736 33.11131,-16.55564 10.34715,-6.2083 19.31415,-12.76215 26.90207,-19.66027 l 19.66025,-19.65799 c -0.68981,-4.13886 -1.72499,-9.65753 -3.1046,-16.55565 -0.68981,-6.89811 -1.72499,-14.142082 -3.1046,-21.729992 -1.37962,-7.58792 -3.10267,-14.82962 -5.17209,-21.72775 -1.37963,-7.58792 -3.44998,-14.14176 -6.20922,-19.66024 z"
             id="path12988" />
        </g>
      </g>
    </g>
  </g>
</svg>
